<mxfile host="app.diagrams.net" modified="2023-05-21T09:24:57.376Z" agent="Mozilla/5.0 (Windows NT 10.0; Win64; x64) AppleWebKit/537.36 (KHTML, like Gecko) Chrome/113.0.0.0 Safari/537.36" etag="Q6wCQH6NI09I-CZIpO8F" version="21.3.2" type="device">
  <diagram name="Page-1" id="2YBvvXClWsGukQMizWep">
    <mxGraphModel dx="1900" dy="1681" grid="1" gridSize="10" guides="1" tooltips="1" connect="1" arrows="1" fold="1" page="1" pageScale="1" pageWidth="850" pageHeight="1100" math="0" shadow="0">
      <root>
        <mxCell id="0" />
        <mxCell id="1" parent="0" />
        <mxCell id="q2f-xhn5rMyfj30fSA3c-1" value="g:GameView" style="shape=umlLifeline;perimeter=lifelinePerimeter;whiteSpace=wrap;html=1;container=0;dropTarget=0;collapsible=0;recursiveResize=0;outlineConnect=0;portConstraint=eastwest;newEdgeStyle={&quot;edgeStyle&quot;:&quot;elbowEdgeStyle&quot;,&quot;elbow&quot;:&quot;vertical&quot;,&quot;curved&quot;:0,&quot;rounded&quot;:0};" parent="1" vertex="1">
          <mxGeometry x="40" y="10" width="100" height="500" as="geometry" />
        </mxCell>
        <mxCell id="q2f-xhn5rMyfj30fSA3c-2" value="" style="html=1;points=[];perimeter=orthogonalPerimeter;outlineConnect=0;targetShapes=umlLifeline;portConstraint=eastwest;newEdgeStyle={&quot;edgeStyle&quot;:&quot;elbowEdgeStyle&quot;,&quot;elbow&quot;:&quot;vertical&quot;,&quot;curved&quot;:0,&quot;rounded&quot;:0};" parent="q2f-xhn5rMyfj30fSA3c-1" vertex="1">
          <mxGeometry x="45" y="70" width="10" height="400" as="geometry" />
        </mxCell>
        <mxCell id="q2f-xhn5rMyfj30fSA3c-3" value="keyPressed" style="html=1;verticalAlign=bottom;startArrow=oval;endArrow=block;startSize=8;edgeStyle=elbowEdgeStyle;elbow=vertical;curved=0;rounded=0;" parent="q2f-xhn5rMyfj30fSA3c-1" target="q2f-xhn5rMyfj30fSA3c-2" edge="1">
          <mxGeometry relative="1" as="geometry">
            <mxPoint x="-30" y="70" as="sourcePoint" />
          </mxGeometry>
        </mxCell>
        <mxCell id="q2f-xhn5rMyfj30fSA3c-4" value="c:Controller" style="shape=umlLifeline;perimeter=lifelinePerimeter;whiteSpace=wrap;html=1;container=0;dropTarget=0;collapsible=0;recursiveResize=0;outlineConnect=0;portConstraint=eastwest;newEdgeStyle={&quot;edgeStyle&quot;:&quot;elbowEdgeStyle&quot;,&quot;elbow&quot;:&quot;vertical&quot;,&quot;curved&quot;:0,&quot;rounded&quot;:0};" parent="1" vertex="1">
          <mxGeometry x="280" y="40" width="100" height="420" as="geometry" />
        </mxCell>
        <mxCell id="q2f-xhn5rMyfj30fSA3c-5" value="" style="html=1;points=[];perimeter=orthogonalPerimeter;outlineConnect=0;targetShapes=umlLifeline;portConstraint=eastwest;newEdgeStyle={&quot;edgeStyle&quot;:&quot;elbowEdgeStyle&quot;,&quot;elbow&quot;:&quot;vertical&quot;,&quot;curved&quot;:0,&quot;rounded&quot;:0};" parent="q2f-xhn5rMyfj30fSA3c-4" vertex="1">
          <mxGeometry x="45" y="80" width="10" height="70" as="geometry" />
        </mxCell>
        <mxCell id="q2f-xhn5rMyfj30fSA3c-6" value="repair(&quot;m&quot;)" style="html=1;verticalAlign=bottom;endArrow=block;edgeStyle=elbowEdgeStyle;elbow=vertical;curved=0;rounded=0;" parent="1" source="q2f-xhn5rMyfj30fSA3c-2" target="q2f-xhn5rMyfj30fSA3c-5" edge="1">
          <mxGeometry relative="1" as="geometry">
            <mxPoint x="195" y="130" as="sourcePoint" />
            <Array as="points">
              <mxPoint x="240" y="130" />
              <mxPoint x="300" y="140" />
              <mxPoint x="180" y="120" />
            </Array>
          </mxGeometry>
        </mxCell>
        <mxCell id="q2f-xhn5rMyfj30fSA3c-7" value="m:Mechanic" style="shape=umlLifeline;perimeter=lifelinePerimeter;whiteSpace=wrap;html=1;container=0;dropTarget=0;collapsible=0;recursiveResize=0;outlineConnect=0;portConstraint=eastwest;newEdgeStyle={&quot;edgeStyle&quot;:&quot;elbowEdgeStyle&quot;,&quot;elbow&quot;:&quot;vertical&quot;,&quot;curved&quot;:0,&quot;rounded&quot;:0};" parent="1" vertex="1">
          <mxGeometry x="510" y="40" width="100" height="420" as="geometry" />
        </mxCell>
        <mxCell id="q2f-xhn5rMyfj30fSA3c-8" value="" style="html=1;points=[];perimeter=orthogonalPerimeter;outlineConnect=0;targetShapes=umlLifeline;portConstraint=eastwest;newEdgeStyle={&quot;edgeStyle&quot;:&quot;elbowEdgeStyle&quot;,&quot;elbow&quot;:&quot;vertical&quot;,&quot;curved&quot;:0,&quot;rounded&quot;:0};" parent="q2f-xhn5rMyfj30fSA3c-7" vertex="1">
          <mxGeometry x="45" y="80" width="10" height="60" as="geometry" />
        </mxCell>
        <mxCell id="q2f-xhn5rMyfj30fSA3c-9" value="alt" style="shape=umlFrame;whiteSpace=wrap;html=1;pointerEvents=0;" parent="1" vertex="1">
          <mxGeometry x="-20" y="110" width="740" height="350" as="geometry" />
        </mxCell>
        <mxCell id="q2f-xhn5rMyfj30fSA3c-10" value="[pressed ==&#39;r&#39;]" style="text;html=1;strokeColor=none;fillColor=none;align=center;verticalAlign=middle;whiteSpace=wrap;rounded=0;" parent="1" vertex="1">
          <mxGeometry x="-20" y="145" width="80" height="30" as="geometry" />
        </mxCell>
        <mxCell id="q2f-xhn5rMyfj30fSA3c-11" value="Repair" style="html=1;verticalAlign=bottom;endArrow=block;edgeStyle=elbowEdgeStyle;elbow=vertical;curved=0;rounded=0;" parent="1" edge="1">
          <mxGeometry relative="1" as="geometry">
            <mxPoint x="330" y="145" as="sourcePoint" />
            <Array as="points">
              <mxPoint x="475" y="145" />
              <mxPoint x="535" y="155" />
              <mxPoint x="415" y="135" />
            </Array>
            <mxPoint x="560" y="145" as="targetPoint" />
          </mxGeometry>
        </mxCell>
        <mxCell id="q2f-xhn5rMyfj30fSA3c-12" value="" style="html=1;verticalAlign=bottom;endArrow=open;dashed=1;endSize=8;edgeStyle=elbowEdgeStyle;elbow=vertical;curved=0;rounded=0;" parent="1" edge="1">
          <mxGeometry relative="1" as="geometry">
            <mxPoint x="330" y="159.5" as="targetPoint" />
            <Array as="points">
              <mxPoint x="440" y="160" />
              <mxPoint x="400" y="160" />
            </Array>
            <mxPoint x="560" y="160" as="sourcePoint" />
          </mxGeometry>
        </mxCell>
        <mxCell id="q2f-xhn5rMyfj30fSA3c-13" value="success" style="edgeLabel;html=1;align=center;verticalAlign=middle;resizable=0;points=[];" parent="q2f-xhn5rMyfj30fSA3c-12" vertex="1" connectable="0">
          <mxGeometry x="-0.1531" y="-4" relative="1" as="geometry">
            <mxPoint x="-12" y="4" as="offset" />
          </mxGeometry>
        </mxCell>
        <mxCell id="q2f-xhn5rMyfj30fSA3c-14" value="" style="html=1;verticalAlign=bottom;endArrow=open;dashed=1;endSize=8;edgeStyle=elbowEdgeStyle;elbow=vertical;curved=0;rounded=0;" parent="1" source="q2f-xhn5rMyfj30fSA3c-5" edge="1">
          <mxGeometry relative="1" as="geometry">
            <mxPoint x="90" y="169.5" as="targetPoint" />
            <Array as="points">
              <mxPoint x="200" y="170" />
              <mxPoint x="160" y="170" />
            </Array>
            <mxPoint x="320" y="170" as="sourcePoint" />
          </mxGeometry>
        </mxCell>
        <mxCell id="q2f-xhn5rMyfj30fSA3c-15" value="&lt;br&gt;" style="edgeLabel;html=1;align=center;verticalAlign=middle;resizable=0;points=[];" parent="q2f-xhn5rMyfj30fSA3c-14" vertex="1" connectable="0">
          <mxGeometry x="-0.1531" y="-4" relative="1" as="geometry">
            <mxPoint x="-12" y="4" as="offset" />
          </mxGeometry>
        </mxCell>
        <mxCell id="q2f-xhn5rMyfj30fSA3c-16" value="" style="html=1;verticalAlign=bottom;endArrow=open;dashed=1;endSize=8;edgeStyle=elbowEdgeStyle;elbow=vertical;curved=0;rounded=0;" parent="1" edge="1">
          <mxGeometry relative="1" as="geometry">
            <mxPoint y="470" as="targetPoint" />
            <Array as="points">
              <mxPoint x="110" y="470.5" />
              <mxPoint x="70" y="470.5" />
            </Array>
            <mxPoint x="90" y="470" as="sourcePoint" />
          </mxGeometry>
        </mxCell>
        <mxCell id="q2f-xhn5rMyfj30fSA3c-17" value="&lt;br&gt;" style="edgeLabel;html=1;align=center;verticalAlign=middle;resizable=0;points=[];" parent="q2f-xhn5rMyfj30fSA3c-16" vertex="1" connectable="0">
          <mxGeometry x="-0.1531" y="-4" relative="1" as="geometry">
            <mxPoint x="-12" y="4" as="offset" />
          </mxGeometry>
        </mxCell>
        <mxCell id="q2f-xhn5rMyfj30fSA3c-18" value="User" style="shape=umlActor;verticalLabelPosition=bottom;verticalAlign=top;html=1;outlineConnect=0;" parent="1" vertex="1">
          <mxGeometry x="-30" y="30" width="30" height="60" as="geometry" />
        </mxCell>
        <mxCell id="q2f-xhn5rMyfj30fSA3c-24" value="" style="html=1;points=[];perimeter=orthogonalPerimeter;outlineConnect=0;targetShapes=umlLifeline;portConstraint=eastwest;newEdgeStyle={&quot;edgeStyle&quot;:&quot;elbowEdgeStyle&quot;,&quot;elbow&quot;:&quot;vertical&quot;,&quot;curved&quot;:0,&quot;rounded&quot;:0};" parent="1" vertex="1">
          <mxGeometry x="325" y="340" width="10" height="70" as="geometry" />
        </mxCell>
        <mxCell id="q2f-xhn5rMyfj30fSA3c-25" value="" style="html=1;points=[];perimeter=orthogonalPerimeter;outlineConnect=0;targetShapes=umlLifeline;portConstraint=eastwest;newEdgeStyle={&quot;edgeStyle&quot;:&quot;elbowEdgeStyle&quot;,&quot;elbow&quot;:&quot;vertical&quot;,&quot;curved&quot;:0,&quot;rounded&quot;:0};" parent="1" vertex="1">
          <mxGeometry x="555" y="340" width="10" height="70" as="geometry" />
        </mxCell>
        <mxCell id="q2f-xhn5rMyfj30fSA3c-27" value="[pressed ==&#39;d&#39;]" style="text;html=1;strokeColor=none;fillColor=none;align=center;verticalAlign=middle;whiteSpace=wrap;rounded=0;" parent="1" vertex="1">
          <mxGeometry x="-10" y="340" width="80" height="30" as="geometry" />
        </mxCell>
        <mxCell id="q2f-xhn5rMyfj30fSA3c-31" value="PlaceDown" style="html=1;verticalAlign=bottom;endArrow=block;edgeStyle=elbowEdgeStyle;elbow=vertical;curved=0;rounded=0;" parent="1" edge="1">
          <mxGeometry relative="1" as="geometry">
            <mxPoint x="335" y="369" as="sourcePoint" />
            <Array as="points">
              <mxPoint x="480" y="369" />
              <mxPoint x="540" y="379" />
              <mxPoint x="420" y="359" />
            </Array>
            <mxPoint x="560" y="369.5" as="targetPoint" />
          </mxGeometry>
        </mxCell>
        <mxCell id="q2f-xhn5rMyfj30fSA3c-34" value="" style="html=1;verticalAlign=bottom;endArrow=open;dashed=1;endSize=8;edgeStyle=elbowEdgeStyle;elbow=vertical;curved=0;rounded=0;" parent="1" edge="1">
          <mxGeometry relative="1" as="geometry">
            <mxPoint x="330" y="390" as="targetPoint" />
            <Array as="points">
              <mxPoint x="435" y="390.5" />
              <mxPoint x="395" y="390.5" />
            </Array>
            <mxPoint x="555" y="390.5" as="sourcePoint" />
          </mxGeometry>
        </mxCell>
        <mxCell id="q2f-xhn5rMyfj30fSA3c-35" value="success" style="edgeLabel;html=1;align=center;verticalAlign=middle;resizable=0;points=[];" parent="q2f-xhn5rMyfj30fSA3c-34" vertex="1" connectable="0">
          <mxGeometry x="-0.1531" y="-4" relative="1" as="geometry">
            <mxPoint x="-12" y="4" as="offset" />
          </mxGeometry>
        </mxCell>
        <mxCell id="q2f-xhn5rMyfj30fSA3c-41" value="" style="html=1;verticalAlign=bottom;endArrow=open;dashed=1;endSize=8;edgeStyle=elbowEdgeStyle;elbow=vertical;curved=0;rounded=0;" parent="1" target="q2f-xhn5rMyfj30fSA3c-2" edge="1">
          <mxGeometry relative="1" as="geometry">
            <mxPoint x="100" y="409" as="targetPoint" />
            <Array as="points">
              <mxPoint x="270" y="400" />
              <mxPoint x="205" y="409.5" />
              <mxPoint x="165" y="409.5" />
            </Array>
            <mxPoint x="325" y="409.5" as="sourcePoint" />
          </mxGeometry>
        </mxCell>
        <mxCell id="q2f-xhn5rMyfj30fSA3c-43" value="placedown(&quot;m&quot;)" style="html=1;verticalAlign=bottom;endArrow=block;edgeStyle=elbowEdgeStyle;elbow=vertical;curved=0;rounded=0;" parent="1" edge="1">
          <mxGeometry relative="1" as="geometry">
            <mxPoint x="95" y="354.5" as="sourcePoint" />
            <Array as="points">
              <mxPoint x="240" y="354.5" />
              <mxPoint x="300" y="364.5" />
              <mxPoint x="180" y="344.5" />
            </Array>
            <mxPoint x="325" y="354.5" as="targetPoint" />
          </mxGeometry>
        </mxCell>
        <mxCell id="q2f-xhn5rMyfj30fSA3c-45" value="" style="endArrow=none;dashed=1;html=1;rounded=0;entryX=1.002;entryY=0.287;entryDx=0;entryDy=0;entryPerimeter=0;" parent="1" edge="1">
          <mxGeometry width="50" height="50" relative="1" as="geometry">
            <mxPoint x="-21" y="300" as="sourcePoint" />
            <mxPoint x="720" y="300" as="targetPoint" />
            <Array as="points" />
          </mxGeometry>
        </mxCell>
        <mxCell id="cvBhsyISIxcSWN2OACk0-1" value="mechanicplays" style="shape=umlFrame;whiteSpace=wrap;html=1;pointerEvents=0;width=90;height=25;" vertex="1" parent="1">
          <mxGeometry x="-60" y="-25" width="850" height="545" as="geometry" />
        </mxCell>
      </root>
    </mxGraphModel>
  </diagram>
</mxfile>
